/* XPM */
static char * fire4_xpm[] = {
"64 64 402 2",
"  	c #489848",
". 	c #479848",
"+ 	c #449848",
"@ 	c #459848",
"# 	c #639546",
"$ 	c #878E41",
"% 	c #888D41",
"& 	c #659445",
"* 	c #898D40",
"= 	c #C87730",
"- 	c #419948",
"; 	c #429948",
"> 	c #5F9546",
", 	c #BB7C34",
"' 	c #EA611D",
") 	c #E16723",
"! 	c #98893E",
"~ 	c #EB601C",
"{ 	c #F9530B",
"] 	c #E26722",
"^ 	c #649446",
"/ 	c #958A3E",
"( 	c #97893E",
"_ 	c #BA7D35",
": 	c #FF4C00",
"< 	c #E16823",
"[ 	c #F9540D",
"} 	c #FF4B00",
"| 	c #FF4D00",
"1 	c #3C9949",
"2 	c #429848",
"3 	c #FF4A00",
"4 	c #629546",
"5 	c #878F41",
"6 	c #958C3F",
"7 	c #978B3E",
"8 	c #BA7F35",
"9 	c #EA621E",
"0 	c #888F41",
"a 	c #C87C32",
"b 	c #E17026",
"c 	c #E26F25",
"d 	c #EA6720",
"e 	c #F85710",
"f 	c #978A3E",
"g 	c #FF4F02",
"h 	c #FF4E00",
"i 	c #EA631E",
"j 	c #BA7E35",
"k 	c #5F9646",
"l 	c #BA8136",
"m 	c #EA6A21",
"n 	c #FF5B0B",
"o 	c #FF5909",
"p 	c #FF5607",
"q 	c #FF5003",
"r 	c #E16A24",
"s 	c #FF5204",
"t 	c #FF5102",
"u 	c #F95910",
"v 	c #C87A31",
"w 	c #C87B31",
"x 	c #F95E12",
"y 	c #FF5707",
"z 	c #FF5505",
"A 	c #FF5304",
"B 	c #FF4F01",
"C 	c #958B3F",
"D 	c #E16D25",
"E 	c #FF5608",
"F 	c #FF5708",
"G 	c #FF5809",
"H 	c #EA6921",
"I 	c #BA8036",
"J 	c #978B3F",
"K 	c #FF5406",
"L 	c #FF5305",
"M 	c #FF5103",
"N 	c #FF4E01",
"O 	c #E16F26",
"P 	c #FF5A0B",
"Q 	c #FF5908",
"R 	c #FF5C0B",
"S 	c #FF590A",
"T 	c #FF5B0A",
"U 	c #F96115",
"V 	c #E17027",
"W 	c #F95E13",
"X 	c #EA6B21",
"Y 	c #FF5C0C",
"Z 	c #FF5D0C",
"` 	c #FF5E0D",
" .	c #FF5B0D",
"..	c #FF5D0D",
"+.	c #FF5C0D",
"@.	c #FF5B0C",
"#.	c #FF5104",
"$.	c #FF5A0D",
"%.	c #FF5C0A",
"&.	c #FF590C",
"*.	c #FF580A",
"=.	c #FF5506",
"-.	c #FF5203",
";.	c #E16C25",
">.	c #99893D",
",.	c #BA8236",
"'.	c #FF5A0C",
").	c #FF5606",
"!.	c #E16E26",
"~.	c #878D41",
"{.	c #C87D32",
"].	c #EA6D21",
"^.	c #F96214",
"/.	c #FF5E0B",
"(.	c #FF5E0C",
"_.	c #FF5F0D",
":.	c #FF590B",
"<.	c #FF5A09",
"[.	c #978C3E",
"}.	c #978C3F",
"|.	c #E17127",
"1.	c #FF600D",
"2.	c #FF620C",
"3.	c #FF650C",
"4.	c #FF670C",
"5.	c #FF660C",
"6.	c #FF640C",
"7.	c #FF610D",
"8.	c #EA6D22",
"9.	c #E26F26",
"0.	c #FF5D0B",
"a.	c #FF610C",
"b.	c #FF6A0B",
"c.	c #FF710A",
"d.	c #FF7509",
"e.	c #FF7309",
"f.	c #FF6C0B",
"g.	c #FF5F0C",
"h.	c #F86316",
"i.	c #EA6B22",
"j.	c #E16F27",
"k.	c #F9570E",
"l.	c #FF640B",
"m.	c #FF7109",
"n.	c #FF7B08",
"o.	c #FF8206",
"p.	c #FF7F07",
"q.	c #FF7409",
"r.	c #FF690B",
"s.	c #FF600C",
"t.	c #FF5808",
"u.	c #FF660B",
"v.	c #FF7608",
"w.	c #FF8306",
"x.	c #FF8C05",
"y.	c #FF8A05",
"z.	c #FF6D0A",
"A.	c #FF620B",
"B.	c #FF670B",
"C.	c #FF7808",
"D.	c #FF8705",
"E.	c #FF9104",
"F.	c #FF8F05",
"G.	c #FF6F0A",
"H.	c #FF630B",
"I.	c #EA641F",
"J.	c #F85F15",
"K.	c #FF7708",
"L.	c #FF8606",
"M.	c #FF8F04",
"N.	c #F8550E",
"O.	c #FF570A",
"P.	c #FF8E05",
"Q.	c #FF6B0B",
"R.	c #FF7908",
"S.	c #FF7E07",
"T.	c #FF6E0A",
"U.	c #EA641E",
"V.	c #FF5507",
"W.	c #FF580B",
"X.	c #FF7609",
"Y.	c #FF8007",
"Z.	c #FF8905",
"`.	c #FF8D05",
" +	c #FF7D07",
".+	c #FF6D0B",
"++	c #FF5202",
"@+	c #F85C12",
"#+	c #FF7209",
"$+	c #FF7C07",
"%+	c #FF8207",
"&+	c #FF8E04",
"*+	c #FF9203",
"=+	c #FF8107",
"-+	c #FF5807",
";+	c #E16E25",
">+	c #FF8405",
",+	c #FF8C04",
"'+	c #FF9103",
")+	c #FF8406",
"!+	c #E26723",
"~+	c #FF4F00",
"{+	c #FF5405",
"]+	c #FF8605",
"^+	c #FF9303",
"/+	c #FF8D04",
"(+	c #FF8B05",
"_+	c #FF680B",
":+	c #FF650B",
"<+	c #FF630C",
"[+	c #E17126",
"}+	c #FF5404",
"|+	c #FF5709",
"1+	c #FF7809",
"2+	c #FF7A08",
"3+	c #FF8805",
"4+	c #FF690C",
"5+	c #FF9004",
"6+	c #FF700A",
"7+	c #FF7C08",
"8+	c #FF680C",
"9+	c #FF7B07",
"0+	c #EA6C21",
"a+	c #FF8506",
"b+	c #C87931",
"c+	c #EA6820",
"d+	c #F96014",
"e+	c #FF720A",
"f+	c #F9540C",
"g+	c #FF9503",
"h+	c #FF9903",
"i+	c #FF9E03",
"j+	c #FFA203",
"k+	c #FFA303",
"l+	c #FFA302",
"m+	c #FFA103",
"n+	c #FF9A03",
"o+	c #FF9403",
"p+	c #FF9204",
"q+	c #F86216",
"r+	c #EA6C22",
"s+	c #E27126",
"t+	c #E17227",
"u+	c #FFA402",
"v+	c #FFB002",
"w+	c #FFBA02",
"x+	c #FFBE02",
"y+	c #FFBD02",
"z+	c #FFBC02",
"A+	c #FFB802",
"B+	c #FFA602",
"C+	c #649546",
"D+	c #FF9D03",
"E+	c #FFAD02",
"F+	c #FFBE01",
"G+	c #FFCC01",
"H+	c #FFD301",
"I+	c #FFD101",
"J+	c #FFC002",
"K+	c #FF9F03",
"L+	c #FFB402",
"M+	c #FFC801",
"N+	c #FFDA01",
"O+	c #FFE100",
"P+	c #FFE000",
"Q+	c #FFB902",
"R+	c #FF5F0B",
"S+	c #EA651F",
"T+	c #FF8A04",
"U+	c #FFA003",
"V+	c #FFB702",
"W+	c #FFCD01",
"X+	c #FFDF00",
"Y+	c #FFE800",
"Z+	c #FFE700",
"`+	c #FFE300",
" @	c #FFD501",
".@	c #FFC501",
"+@	c #FFA703",
"@@	c #FFA002",
"#@	c #FFE900",
"$@	c #FFE500",
"%@	c #FFDD00",
"&@	c #FFD401",
"*@	c #FFC202",
"=@	c #FFE600",
"-@	c #FFD201",
";@	c #FFC301",
">@	c #FFB202",
",@	c #FF8B04",
"'@	c #FF8106",
")@	c #FF9603",
"!@	c #FF9703",
"~@	c #FFA403",
"{@	c #FFBB02",
"]@	c #FFCF01",
"^@	c #FFE200",
"/@	c #FFD701",
"(@	c #FF6B0A",
"_@	c #FF9003",
":@	c #FF9803",
"<@	c #FFA702",
"[@	c #FFAC02",
"}@	c #FFC601",
"|@	c #FFE400",
"1@	c #FFD900",
"2@	c #FFCA01",
"3@	c #FFB602",
"4@	c #FF8804",
"5@	c #FF5A0A",
"6@	c #E16D26",
"7@	c #FF620D",
"8@	c #FF7709",
"9@	c #FFC901",
"0@	c #FFD800",
"a@	c #FFDE00",
"b@	c #FFAB02",
"c@	c #FFA902",
"d@	c #FF6C0A",
"e@	c #FF8F03",
"f@	c #FFC001",
"g@	c #FFA802",
"h@	c #FF690A",
"i@	c #FFA202",
"j@	c #FFC201",
"k@	c #FFAE02",
"l@	c #FFA102",
"m@	c #FF9B03",
"n@	c #FF6809",
"o@	c #E26E26",
"p@	c #F85E15",
"q@	c #FF680A",
"r@	c #FF8704",
"s@	c #FFBF02",
"t@	c #FFD901",
"u@	c #FFAF02",
"v@	c #FF7A06",
"w@	c #FF6507",
"x@	c #FF5706",
"y@	c #BA7F36",
"z@	c #FF5002",
"A@	c #FFD001",
"B@	c #FF8505",
"C@	c #FF7705",
"D@	c #FF6105",
"E@	c #FF5001",
"F@	c #FF6708",
"G@	c #FF7A05",
"H@	c #FF8703",
"I@	c #FF9101",
"J@	c #FFA500",
"K@	c #FFBE00",
"L@	c #FFD300",
"M@	c #FFD200",
"N@	c #FFBF00",
"O@	c #FFA400",
"P@	c #FF8F01",
"Q@	c #FF8502",
"R@	c #FF7501",
"S@	c #FF5E00",
"T@	c #F9550C",
"U@	c #FF670A",
"V@	c #FF7907",
"W@	c #FFA502",
"X@	c #FF8603",
"Y@	c #FF5E01",
"Z@	c #E16924",
"`@	c #E17626",
" #	c #E18125",
".#	c #E18A24",
"+#	c #E19224",
"@#	c #E1A024",
"##	c #E1B323",
"$#	c #E1C323",
"%#	c #E1CF23",
"&#	c #E1D523",
"*#	c #E1D623",
"=#	c #E1D723",
"-#	c #E1D223",
";#	c #E1C623",
">#	c #E1B623",
",#	c #E1A224",
"'#	c #E19324",
")#	c #E18B24",
"!#	c #E28023",
"~#	c #E17123",
"{#	c #978D3E",
"]#	c #97903E",
"^#	c #97933E",
"/#	c #97963E",
"(#	c #979B3E",
"_#	c #97A23E",
":#	c #97A93E",
"<#	c #97AE3E",
"[#	c #97B13E",
"}#	c #97B23E",
"|#	c #97AF3E",
"1#	c #97AA3E",
"2#	c #97A33E",
"3#	c #979C3E",
"4#	c #97943E",
"5#	c #429748",
"                                                                                                                                ",
"                                                  . + + .                                                                       ",
"                                                                                                                                ",
"                                              @ + # $ % &   .                                                                   ",
"                                              +   * = = *   +                                                                   ",
"                                      . + - ; > $ , ' ) !   ;                     . + ; ; + .                                   ",
"                                          +   $ = ~ { ] !   ;                                                                   ",
"                                  .   ^ % / ( _ ' : : ) (   ;                 .   ^ % ( ( % ^   .                               ",
"                                  +   % = < ] ' [ } : ) (   ;                 +   % = ] ] = %   +                               ",
"                                  ;   ( ) | : | | : | ) (   ;             . + 1 2 / < : : ) (   ;                               ",
"                                  ;   ( ] : 3 : | : | ) (   ;                 ;   ( ] 3 3 ] (   ;                               ",
"                                  ;   ( ) | : | | : | < / + -         @ + 4 5 6 7 8 9 : : ) (   ;                               ",
"                                  ;   ( ) | : | | : | ) (   ;         +   0 a b c d e : | ) (   ;                               ",
"                                  ;   f < g h g g h g i j $ > 2 - - 2 k 5 l m n o p q : | ) (   ;                               ",
"                                  ;   f r s t s s s s u d v $   + +   5 w m x y z A B : | ) (   ;                               ",
"                                  - + C D E z E F F E p G H I J 6 6 7 l m o z K L M N : | < (   ;                               ",
"                                  2   7 O P Q n R n P S T U m O V b b m W z M g g N | : N < f   ;                               ",
"              . + ; ; + .     @ + k 5 l X Y n Z ` `  . .....+.+.Y Y Y @.S p #.g B B g h t r f   ; . + ; ; + .                   ",
"                              +   5 a X U Y Y Z ` `  .$. .+.Y R %.T P P &.*.=.A A A A -.=.;.f   ;                               ",
"          .   & * >.>.* & . . 4 0 ,.X Z R Z Y Z ` ` +. . .+.` ` Z Y  . . .'.o F F E F ).o !.C - 1 4 ~.( ( % ^   .               ",
"          +   % = ] ] = % + + 5 {.].^./.(.` Z Z ` _.` ` ` ` _.` Z Y ..` ` ..Z R P :.P <.Y b [.+ 2 % = ] ] = %   +               ",
"          +   % = ] ] = % 2 + }.|.` /._.1._.Z (.2.3.4.5.6.7._...Y Y ` _.` ` _.` +. .Y R ` 8.l 6 6 8 9 : : ) (   ;               ",
"          .   & * >.>.* & 2 . 7 9.Y 0._._.` Z a.b.c.d.e.f.3.g.Y  .+.` ` +.+.` _.` ..Z Z ` h.i.j.O d k.3 } ] (   ;               ",
"                      . + 1 ; 6 j.+.R ` ` ..Z l.m.n.o.p.q.r.s.Y  .+.` `  . .` _._.` Z Z ` ` +. .@.t.M : | < / ; 1 + .           ",
"              . + ; ; + . 2   }.|...n +.Y Y Y u.v.w.x.y.n.z.A.Y ..` _.`  . .` _._._.` ` _.` Z R T y M : | ) (   ;               ",
"                  .   ^ % / ( I X ..@.+.Y @.Y B.C.D.E.F.p.G.H.Y ..` _.` +.+...` ` ` _._._._.` ..Y G M : | ' _ ( / % ^   .       ",
"                  +   % = ) ] I.J.+.....Y Y Y u.K.L.E.M.p.G.H.Y  .+.` _.` ..+.+.Y (._.1._.` +. .@.t.M | | N.' ] < = %   +       ",
"              . + 1 ; / < | : #.O. ...` Z Y Z B.K.L.E.P.p.G.H.Y  .+...` ` ..+. .+.Z ` _.` ..+.@.n t.M | | | | : | ) (   ;       ",
"                  ;   ( ] : : M O. .+.Z ` _.a.Q.R.D.E.P.S.T.A.Y ....+.+.Y Z ` _._.` (.Z Z Y Y @.n G s B | | h : : ] (   ;       ",
"          .   ^ % / ( j U.M -.V.W.$.Y s.5.Q.G.X.Y.Z.E.`. +z.2.Y ....+...a.u.Q..+b.5.g.Y Y Y Y Y n S =.s M -.A ++s r f   ;       ",
"          +   % = < ] U.@+t.o :.'.$.@.l.#+$+%+L.Z.&+*+x. +z.a. . .+...2.b.q.p.=+n.c.l.Y Y Y Y Y Y n S G t.t.o -+o ;+7   2       ",
"          ;   ( < h | s G @.Y Y  .$.Y B.C.>+,+M.M.'+*+,+ +G.6...+.+.` 6.T.n.Z.,+)+K.B.Z Y Z (.g.(.Z Y Y Y Y Y T Y b [.  2       ",
"          ;   ( !+h ~+{+*. ...` Y @.Y B.R.]+&+*+*+*+^+/+p.e.Q.6.1.` _.6.T.$+(+&+]+R._+` Y g.l.:+<+a.g.` ` ..+.n ..[+}.  2       ",
"          ;   f r {+}+|+&. ...` Z Y Y B.R.D.M.^+^+^+^+M.L.S.1+c.Q.3.1.<+T.$+x.M.]+R._+` g.B.c.d.c.Q.<+_.` ..+.n ..|.}.  2       ",
"          2   7 !.S Q P '.$. .+.` ` Z _+2+3+M.^+^+^+^+*+&+(+3+%+C.z.2.2.z. +x.M.]+R.B.` <+c.%+D.o.1+4+_.+.+...R +.j.J   2       ",
"          2   7 b Y T Y +. . ..._.` (._+n.3+M.^+*+*+^+^+^+*+5+(+=+q.B.:+6+S.,+M.]+R.B.` 3.q.L.,+D.7+b.`  . .` 0.+.j.J   2       ",
"          2   7 b Y T Z ..` ` ` _._._.r.2+D.M.*+5+5+*+^+^+^+*+&+)+R.T.z.v.o./+M.]+R._+_.<+G. +w.p.X.8+`  . .` /.` |.}.  2       ",
"          - + 6 V Z %.Z ..` _._._._._.r.R.]+M.*+5+5+*+^+^+^+^+5+y.o.9+n.=+3+M.M.]+C._+_.7._+c.d.q.T.3.` +.+...0._.|.}.  2       ",
"          2   }.[+` 0...+.+.` _._._._.r.R.]+M.^+*+*+^+^+^+^+^+*+5+/+(+(+/+5+*+&+)+C.8+_.1.a.6.3.5.3.7._.` ..+.n ` |.}.  2       ",
"      @ + > $ l 0+` /...+.+.` _.` ` _.r.R.]+M.^+^+^+^+^+^+^+*+*+^+^+^+^+^+^+^+M.a+2+.+5.3.2.` +.` _.` ` _.`  .P ..|.}.  2       ",
"      +   $ b+c+d+Z Z Y Y Y ` ` +.+.` r.R.]+M.^+^+^+^+^+^+*+5+5+*+^+^+^+^+^+^+5+Z.Y.C.e+G.b.2.` ` ` +.+.` `  .:. .j.J   2       ",
"  .   4 % j U.=.Q Y Y Y Y Z ` ` +.+.` r.R.]+M.^+*+*+^+^+^+*+5+5+'+*+*+*+^+^+^+'+/+3+)+p.2+e+5._.` ` +.+.....@.<.P 9.7   2       ",
"  +   $ = ' f+-.t.Y Y Y Y Z ` _.` ` _.r.R.]+M.*+5+5+*+^+^+^+*+*+^+^+^+^+^+^+^+*+'+5+5+x.)+C.4+_._._.` ..+.+...0.` |.}.  2       ",
"  ;   ( ) | : M G Y Y Y Z Z ` 1.<+5.8+c.S.3+5+*+5+5+*+g+h+i+j+k+l+l+j+m+i+n+g+^+^+o+g+p+(+Y.c._+5.6.7.` +.q+r+s+t+{.0   +       ",
"  ;   ( ] : : s *. .Y Z ` ` Z 2.Q.e+K.S.D./+'+^+*+*+^+h+u+v+w+x+y+z+z+A+v+B+n+^+^+^+o+*+&+D.S.K.e.z.6.(.` r+,.[.6 0 C+  .       ",
"  ;   ( ] : : M O. .+.Z ` ` (.:+e. +w.3+/+5+*+^+^+^+^+D+E+F+G+H+I+I+I+G+J+v+i+^+*+^+^+*+M.,+3+)+S.q.4./._.|.}.  2               ",
"  ;   ( ) | | s O. ...` _._._.b.n.]+,+5+'+*+^+^+^+^+^+K+L+M+N+O+P+P+O+N+G+Q+j+g+^+^+^+*+M.&+M.,+a+R.r.R+_.t+6 2 1 + .           ",
"  +   % = < !+S+J.+.` _.` .._.Q. +T+'+o+^+^+^+^+*+'+^+U+V+W+X+Y+Z+Z+Y+`+ @.@L++@K+n+g+'+M.,+(+D.Y.X.8+R+` [+}.  2               ",
"  .   ^ % / ( I X ` (.` +. .Z r.$+T+*+g+o+^+^+*+5+5+*+@@V+W+X+Z+Z+Z+#@$@%@&@W+*@L+B+n+'+/+L. +d.6+b.6./.Z b [.  2               ",
"          2   }.|._.0...+. .Z r.9+3+5+o+o+^+^+*+E.E.^+m+A+W+X+Z+Z+Z+Y+=@O+%@N+-@;@>@K+'+,@'@m.B.6.2.1.0.Y O 7   2               ",
"      . + 1 ; 6 t+` n +...` _.r.2+]+/+E.*+^+^+o+g+)@!@~@{@]@P+Y+Z+=@Z+$@^@P+%@/@G+{@k+*+Z. +(@s._._.(.T  .O J   2               ",
"          2   }.[+..P  .` _.1.4.e.$+%+3+/+_@*+:@U+<@[@V+}@ @^@Y+Z+=@=@|@X+1@I+2@;@3@m+'+4@9+r.....Z 5@y *.6@7   2               ",
"          2   [.b Y P  .` _._.7@4.Q.G.8@w.T+_@D+v+F+9@I+0@a@|@Z+=@=@=@O+/@9@V+b@c@k+h+_@4@$+b.` +.:.=.t s r f   ;               ",
"          2   7 9.T o '...` ` ` _._.a.d@$+D.e@m+Q+G+1@P+^@|@$@=@=@=@Z+P+H+f@g@n+n+h+g+_@4@$+b.(.'.E t : | !+(   ;               ",
"          2   7 b @.P $. . . .+.Y Y Z h@9+D.e@i@y+I+a@|@$@$@=@=@=@Z+Y+^@&@j@k@l@i+m@)@_@4@9+n@n *.V.q : | < (   ;               ",
"          +   0 a V o@H p@O.|+*.P @.Y q@9+r@e@k+s@H+P+Z+=@=@=@=@=@Z+Y+`+t@W+f@3@u@+@n+M.D.v@w@x@{+u i ] < = %   +               ",
"          .   C+0 6 7 y@I.q z@L o @.Y q@9+3+'+~@s@H+^@Y+Z+=@=@=@=@=@Z+$@^@%@0@A@}@V+U+M.B@C@D@t q i _ ( / % ^   .               ",
"                  ;   ( ] : 3 E@x@<.T F@G@H@I@J@K@L@^@Y+Y+Z+Z+Z+Z+Z+Z+Z+Z+=@$@X+M@N@O@P@Q@R@S@T@' = $   +                       ",
"              . + 1 2 / ) | : M t.n Y U@V@]+5+~@z+A@P+Z+Z+=@=@=@=@=@=@=@=@Z+Z+O+H+s@W@'+X@R@Y@' _ ~.> ; - + .                   ",
"                  +   % = ) ] Z@D O b `@ #.#+#@###$#%#&#&#&#&#&#&#&#&#&#&#*#=#-#;#>#,#'#)#!#~#= %   +                           ",
"                  .   ^ % ( ( f 7 7 7 {#]#^#/#(#_#:#<#[#[#[#[#[#[#[#[#[#[#[#}#|#1#2#3#/#4#]#[.$ 4 + @                           ",
"                                                                                                                                ",
"                      . + ; ; ; 2 2 2 2 2 2 2 2 2 5#5#5#5#5#5#5#5#5#5#5#5#5#5#5#5#2 2 2 2 2 2 + .                               ",
"                                                                                                                                "};
