/* XPM */
static char * fire2_xpm[] = {
"64 64 337 2",
"  	c #489848",
". 	c #479848",
"+ 	c #449848",
"@ 	c #429948",
"# 	c #649446",
"$ 	c #888D41",
"% 	c #97893E",
"& 	c #C87730",
"* 	c #E26722",
"= 	c #E16723",
"- 	c #FF4C00",
"; 	c #FF4A00",
"> 	c #459848",
", 	c #639546",
"' 	c #878D41",
") 	c #898D40",
"! 	c #E16823",
"~ 	c #419948",
"{ 	c #429848",
"] 	c #5F9546",
"^ 	c #878E41",
"/ 	c #BB7D35",
"( 	c #EA621D",
"_ 	c #EA611D",
": 	c #BC7C34",
"< 	c #FF4D00",
"[ 	c #E16923",
"} 	c #978A3E",
"| 	c #EA631D",
"1 	c #F9550C",
"2 	c #E16A24",
"3 	c #FF5101",
"4 	c #FF5202",
"5 	c #E16B24",
"6 	c #649546",
"7 	c #888F41",
"8 	c #958C3F",
"9 	c #978B3E",
"0 	c #BA8036",
"a 	c #EA661F",
"b 	c #FF5304",
"c 	c #F85810",
"d 	c #E9641F",
"e 	c #C77831",
"f 	c #868E41",
"g 	c #E16E25",
"h 	c #FF5807",
"i 	c #E16E26",
"j 	c #C87C32",
"k 	c #E17027",
"l 	c #E27026",
"m 	c #EA6B21",
"n 	c #F96014",
"o 	c #FF5706",
"p 	c #FF5607",
"q 	c #BB7E35",
"r 	c #978C3E",
"s 	c #E17026",
"t 	c #FF5B0A",
"u 	c #3C9949",
"v 	c #978C3F",
"w 	c #FF5D0D",
"x 	c #FF5C0B",
"y 	c #FF5B0B",
"z 	c #FF5A0B",
"A 	c #EA6921",
"B 	c #BA8136",
"C 	c #878F41",
"D 	c #5F9646",
"E 	c #FF5B09",
"F 	c #FF5C0C",
"G 	c #FF5D0C",
"H 	c #F86115",
"I 	c #E96C22",
"J 	c #C77D32",
"K 	c #868F41",
"L 	c #EA6C22",
"M 	c #629546",
"N 	c #3E9949",
"O 	c #F86216",
"P 	c #F96215",
"Q 	c #849042",
"R 	c #E17127",
"S 	c #F96114",
"T 	c #C67D32",
"U 	c #F76317",
"V 	c #FF5E0D",
"W 	c #FF600C",
"X 	c #FF620C",
"Y 	c #FF640C",
"Z 	c #FF630C",
"` 	c #FF610C",
" .	c #FF5F0D",
"..	c #FF4E00",
"+.	c #E16924",
"@.	c #958A3E",
"#.	c #FF600B",
"$.	c #FF670B",
"%.	c #FF6C0A",
"&.	c #FF6F0A",
"*.	c #FF6E0A",
"=.	c #FF690B",
"-.	c #FF5203",
";.	c #FF5303",
">.	c #E16B25",
",.	c #FF7708",
"'.	c #FF7D07",
").	c #FF7B08",
"!.	c #FF710A",
"~.	c #FF680B",
"{.	c #E16D25",
"].	c #FF5707",
"^.	c #FF660C",
"/.	c #FF7609",
"(.	c #FF8206",
"_.	c #FF8A05",
":.	c #FF8706",
"<.	c #FF7908",
"[.	c #FF6C0B",
"}.	c #E16F26",
"|.	c #F86116",
"1.	c #EA6B22",
"2.	c #FF4F00",
"3.	c #EA641E",
"4.	c #BA7F36",
"5.	c #FF8605",
"6.	c #FF8F04",
"7.	c #FF8C05",
"8.	c #E26B24",
"9.	c #FF5302",
"0.	c #F95C12",
"a.	c #EA6A21",
"b.	c #FF670C",
"c.	c #FF7808",
"d.	c #FF8506",
"e.	c #FF8C04",
"f.	c #FF590A",
"g.	c #FF5808",
"h.	c #FF5C0D",
"i.	c #FF8E04",
"j.	c #FF6D0A",
"k.	c #FF5B0D",
"l.	c #FF5F0C",
"m.	c #FF7409",
"n.	c #FF7A08",
"o.	c #FF6B0B",
"p.	c #FF8805",
"q.	c #FF8107",
"r.	c #FF650C",
"s.	c #FF8106",
"t.	c #FF7309",
"u.	c #FF9003",
"v.	c #FF8D04",
"w.	c #FF8E03",
"x.	c #FF5E0C",
"y.	c #FF8F03",
"z.	c #FF8705",
"A.	c #FF9004",
"B.	c #FF7C07",
"C.	c #FF7109",
"D.	c #FF7509",
"E.	c #FF7209",
"F.	c #FF6A0B",
"G.	c #FF700A",
"H.	c #FF730A",
"I.	c #FF7E07",
"J.	c #FF8406",
"K.	c #FF8905",
"L.	c #FF9203",
"M.	c #FF8306",
"N.	c #FF6D0B",
"O.	c #FF9103",
"P.	c #FF9303",
"Q.	c #FF650B",
"R.	c #FF8006",
"S.	c #FF8B04",
"T.	c #FF7B07",
"U.	c #FF8007",
"V.	c #FF8B05",
"W.	c #FF600D",
"X.	c #FF9403",
"Y.	c #FF9603",
"Z.	c #FF9903",
"`.	c #FF9D03",
" +	c #FF9E03",
".+	c #FF9C03",
"++	c #FF9A03",
"@+	c #FF9703",
"#+	c #FFA503",
"$+	c #FFAD02",
"%+	c #FFB102",
"&+	c #FFB302",
"*+	c #FFB202",
"=+	c #FFAE02",
"-+	c #FFA402",
";+	c #FF9C02",
">+	c #FF8505",
",+	c #FF9F03",
"'+	c #FFBF01",
")+	c #FFC601",
"!+	c #FFC901",
"~+	c #FFC801",
"{+	c #FFC101",
"]+	c #FFA302",
"^+	c #FF9803",
"/+	c #FF7F07",
"(+	c #FFA303",
"_+	c #FFBC02",
":+	c #FFCD01",
"<+	c #FFD801",
"[+	c #FFDD00",
"}+	c #FFD301",
"|+	c #FFBE02",
"1+	c #FFAA02",
"2+	c #FF9B03",
"3+	c #FFC102",
"4+	c #FFD501",
"5+	c #FFE100",
"6+	c #FFE700",
"7+	c #FFDE00",
"8+	c #FFCA01",
"9+	c #FFB802",
"0+	c #FFA103",
"a+	c #FF9503",
"b+	c #FF620B",
"c+	c #FFA602",
"d+	c #FFC302",
"e+	c #FFD701",
"f+	c #FFE200",
"g+	c #FFE800",
"h+	c #FFC201",
"i+	c #FFA202",
"j+	c #FF620A",
"k+	c #FFA603",
"l+	c #FFE400",
"m+	c #FFDD01",
"n+	c #FFD401",
"o+	c #FFCB01",
"p+	c #FFBA02",
"q+	c #FF660B",
"r+	c #FFA803",
"s+	c #FFC202",
"t+	c #FFE600",
"u+	c #FFE300",
"v+	c #FFAF02",
"w+	c #FF610B",
"x+	c #FF7C08",
"y+	c #FFA003",
"z+	c #FFB602",
"A+	c #FFDE01",
"B+	c #FF5E0B",
"C+	c #FFA203",
"D+	c #FFB502",
"E+	c #FFC002",
"F+	c #FFC502",
"G+	c #FFCE01",
"H+	c #FFE000",
"I+	c #FFE500",
"J+	c #FFC701",
"K+	c #FFA702",
"L+	c #FFDB01",
"M+	c #FFD101",
"N+	c #FFD800",
"O+	c #FFDF00",
"P+	c #FFD601",
"Q+	c #FFB702",
"R+	c #FFC501",
"S+	c #FFCC01",
"T+	c #FFDB00",
"U+	c #FFDA00",
"V+	c #FFCF01",
"W+	c #FFA802",
"X+	c #FF5F0B",
"Y+	c #FFBB02",
"Z+	c #FF5D0B",
"`+	c #FF5E08",
" @	c #FF6D08",
".@	c #FF8104",
"+@	c #FF8D02",
"@@	c #FF9101",
"#@	c #FF9401",
"$@	c #FF9601",
"%@	c #FF9701",
"&@	c #FF9A01",
"*@	c #FFAB00",
"=@	c #FFC600",
"-@	c #FFB100",
";@	c #FFA001",
">@	c #FF9301",
",@	c #FF8E02",
"'@	c #FF8304",
")@	c #FF7506",
"!@	c #FF660A",
"~@	c #FF5F0A",
"{@	c #FFA703",
"]@	c #FFC402",
"^@	c #FFDC01",
"/@	c #FF7407",
"(@	c #E17126",
"_@	c #E27126",
":@	c #E17B26",
"<@	c #E18825",
"[@	c #E19024",
"}@	c #E19324",
"|@	c #E19424",
"1@	c #E1A324",
"2@	c #E1BA23",
"3@	c #E1CA23",
"4@	c #E1D223",
"5@	c #E1D523",
"6@	c #E1D423",
"7@	c #E1CD23",
"8@	c #E1B923",
"9@	c #E1A724",
"0@	c #E19924",
"a@	c #E19224",
"b@	c #E19524",
"c@	c #E19124",
"d@	c #E27E25",
"e@	c #E17526",
"f@	c #978F3E",
"g@	c #97933E",
"h@	c #97953E",
"i@	c #97963E",
"j@	c #97973E",
"k@	c #979C3E",
"l@	c #97A53E",
"m@	c #97AC3E",
"n@	c #97AF3E",
"o@	c #97B13E",
"p@	c #97B03E",
"q@	c #97AD3E",
"r@	c #979D3E",
"s@	c #97983E",
"t@	c #97903E",
"u@	c #978D3E",
"v@	c #429748",
"                                                                                                                                ",
"                                      . + @ @ + .                                                                               ",
"                                                                                                                                ",
"                                  .   # $ % % $ #   .                                                                           ",
"                                  +   $ & * * & $   +                                                                           ",
"                                  @   % = - - = %   @                     . + + .                 . + @ @ + .                   ",
"                                  @   % * ; ; * %   @                                                                           ",
"                                  @   % = - - = %   @                 > + , ' ' , + >         .   # $ % % $ #   .               ",
"                                  @   % = - - = %   @                 +   ) & & )   +         +   $ & * * & $   +               ",
"                                  @   % = - - ! %   @         . + ~ { ] ^ / ( _ : ) ,   .     @   % * ; ; * %   @               ",
"                                  @   % = - < [ }   @             +   ^ & | 1 1 | & ^   +     @   % * ; ; * %   @               ",
"                                  @   } 2 3 4 5 }   @     .   6 7 8 9 0 a b 4 c d e f   +     +   $ & * * & $   +               ",
"                                  {   9 g h h i 9   {     +   7 j k l m n o p a q ) ,   .     .   # $ % % $ #   .               ",
"                                  {   r s t t s 8 { u + . {   v k w x w w y z A B C D { ~ + .     . + @ @ + .                   ",
"                                  {   v s x x s v   {     {   9 l x E F w G F H I J K   +         . + @ @ + .                   ",
"                                  {   v k F x L B 9 8 C M N > v k w x w w w w F w L B 9 8 7 6 . . # $ % % $ #   .               ",
"                                  {   v k w x O L l k j 7 { + v k w x w w w w G F P m l k j 7 + + $ & * * & $   +               ",
"                              . + u { 8 k w x w w F w m B Q D 8 R w x w w w w w w w w x w k v @ { % = - - = %   @               ",
"                                  {   v k w x w F x x S m T C v R w x w w w w w w w F E x l 9 @ { % * ; ; * %   @               ",
"                          .   6 7 8 9 B L w F w w w w F w I B B I w F w w w w w w w w x w k v @ { % = - - = %   @               ",
"                          +   7 j k l L O w w w w w w G F O m L U w w w w w w w w w w x w k v @ { % = - - = %   @               ",
"              . + @ @ + . {   v k w x w w w w w w w w w w w w V W X Y Z `  .V w w w w x w k v @ { } ! ....+.@.{ u + .           ",
"                          {   9 l x E F w w w w w w w w w w F #.$.%.&.*.=.Z  .w w w w x w k v @ { } 5 -.;.>.}   @               ",
"          .   # $ % % ' M u ~ 8 k w x w w w w w w w w w w w w Z *.,.'.).!.~.` w w w w x w k v { { 9 {.].].A B 9 8 7 6   .       ",
"          +   $ & * * & $ { + v k w x w w w w w w w w w w w w ^./.(._.:.<.[.X w w w w x w k v { { 9 }.y t |.1.l k j 7   +       ",
"          @   } +.2.2.3.4.8 8 B L w F w w w w w w w w w w w w ~.<.5.6.7.'.*.Z w w w w x w k v { { v k w x w w x w k v   {       ",
"          @   } 8.;.9.0.a.k k L O w w w w w w w w w w w w w w b.c.d.6.e.'.*.Z w w w w x w k v { { v k w x w F E x l 9   {       ",
"          {   9 i f.g.z F w w w w w w w w w h.w w w w w w w w b.,.d.i.7.'.*.X h.w w w x w k 8 u u 8 k w x w w x w k v   {       ",
"          {   9 }.F t F x x x F w w w w w w w w w w w w w w w ~.<.5.6.7.'.j.` k.h.w w x w k v { { v k w x w w x w k v   {       ",
"          {   v k w x w w w w w w w V ` ^.~.=.^.X  .V w w w w ~.<.5.6.7.'.j.` k.h.w w F w L B 8 8 B L w F w w x w k v   {       ",
"          {   v k w x w w w w w w w l.$.m.n.)./.o.Z  .w w w w b.,.d.i.7.'.*.X h.w w w w w O L k k L O w w w w x w k v   {       ",
"      . + u { 8 k w x w w w w w w V W %.'.5.p.q.!.r. .w w w w b.,.d.i.7.'.*.Z w w w w w w w w w w w w w w w w x w k v   {       ",
"          {   v k w x w w w w w w V W j.s.e.i.:.t.r. .w w w w ~.<.5.6.7.'.*.Z w w w w w w w F x x F w w w w w x w k v   {       ",
"  .   6 7 8 9 B L w F w w w w w w w W *.(.i.u.p.m.r. .w w h.w ~.<.5.6.7.'.*.Z w w w w w w w h.h.w w w w w w w x w k v   {       ",
"  +   7 j k l L O w w w w w w w w w W *.(.e.i.d.t.r. .w w w w b.,.d.i.7.'.*.Z w w w w w w h.k.k.h.w w w w w w x w k v   {       ",
"  {   v k w x w w w w w w w w w w w W *.(.e.v.d.t.r. .w V  . .~.c.d.i.7.'.*.X w w V  . . . .V V  . .V w w w w x w k v   {       ",
"  {   9 l x E F w w w w w w w w w w W *.(.e.w.5.m.r. . .` Z r.j.n.5.6.7.'.j.` h.x.` Y r.r.r.r.r.r.Z  .w w w w x w k v   {       ",
"  {   v k w x w w w w w w w w w w V ` &.(.v.y.z.m.Y  .` =.&.t.<.(._.A.7.B.j.` w Y o.C.m.D.D.m.E.&.F.X w w w w x w k v   {       ",
"  {   v k w x w w w w w w w w w w V X G.(.v.y.z.H.Z  .^.m.I.J.K.v.A.L.7.B.j.` ` %.c.(.z.K.K.z.M.B.E.r.w w w w x w k v   {       ",
"  {   9 l x E F w w w w w w w w w V X G.(.v.y.z.D.~.Y N.'.p.i.O.P.P.P.e.I.G.Q.$.t.R.S.O.L.L.O.e.J.,.b.w w w w x w k v   {       ",
"  {   v k w x w w w w w w w w w w V ` &.(.v.y.K.T.C.&./.M.e.u.P.P.P.P.v.(.,.*.&.n.d.i.P.P.P.P.i.5.<.~.w w w w x w k v   {       ",
"  +   7 j k l L O w w w w w w w w w W *.(.v.u.e.M.'.'.U.z.v.O.L.P.L.L.i.z.U.).B.(.K.A.P.L.L.P.6.5.<.~.w w w w x F l 9   {       ",
"  .   6 7 8 9 B L w F w w w w w w w W *.(.v.O.u.e.S.S.e.e.i.O.P.P.L.O.y.e.S.V.V.e.i.O.L.O.O.L.i.d.,.b.w w w w x w k v   {       ",
"          {   v k w x w w w V W.Z r.$.t.M.v.O.L.O.O.L.X.Y.Z.`. + +`..+++@+X.P.L.O.O.O.O.O.O.L.i.d.,.b.w w G F S m j C   +       ",
"      . + u { 8 k w x w w V l.r.j.E.m.T.5.i.O.L.O.O.P.++#+$+%+&+*+%+*+=+-+;+Y.P.L.L.O.O.O.L.P.6.5.<.~.w w F w m B 7 M   .       ",
"          {   9 l x E F w V ` F.,.I.s.>+S.6.L.L.O.O.P.,+*+'+)+!+~+~+!+{+*+]+^+L.L.L.O.O.L.P.P.6.5.<.~.w w P L j C   +           ",
"          {   v k w x w w V X *./+K.e.i.u.L.P.P.L.L.X.(+_+:+<+[+[+[+[+}+|+1+2+P.P.P.L.L.P.P.P.i.d.,.b.F w m B C D + >           ",
"          +   7 j k l L O  .Z !.M.i.L.P.P.P.P.P.L.L.P.#+3+4+5+6+6+6+6+7+8+9+1+0+.+^+a+L.A.i.7.:.I.E.r.x w k v   {               ",
"          .   6 7 8 9 B L  .b+!.M.i.L.X.P.P.P.L.O.O.P.c+d+e+f+6+g+g+6+5+4+8+h+9+$+i+^+A.V.J.'./.!.F.X x w k 8 + ~               ",
"                  {   v k  .j+!.J.i.O.L.P.P.P.L.O.u.P.k+d+e+f+6+6+6+6+l+m+<+n+o+p+1+2+6.z.'.G.~.q+Z  .x w k v   {               ",
"              . + u { 8 k  .j+!.M.v.i.6.L.P.P.P.P.P.Y.r+s+4+5+6+6+6+6+t+l+u+f+<+d+v+`.i.J.c.~.l. . .V x w k v   {               ",
"                  {   v k V w+N.x+J.d.p.i.L.X.Z.y+k+1+z+8+<+f+6+6+6+t+t+6+g+g+A+~+%+ +i.M.D.r.k.h.w w x w k v   {               ",
"                  {   v k w B+Y *.t./.'.p.A.a+C+D+E+F+G+<+H+I+6+6+t+I+I+t+g+g+m+J+%+ +i.(.m.r.h.h.w w x w k v   {               ",
"                  {   9 l x E B+b+q+=.m.J.i.a+K+E+G+4+L+H+l+t+6+6+t+I+l+I+I+I+L+)+%+`.v.s.m.^.w w w F E x l 9   {               ",
"                  {   v k w x w  .W Z G.(.v.P.c+E+M+N+[+5+l+t+6+6+6+t+l+5+H+O+P+h+v+`.v.s.m.^.w w w w x w k v   {               ",
"                  +   7 j k l L O w W *.(.v.L.0+Q+R+S+}+T+5+I+6+6+6+6+f+U+}+V+)+Q+W+++i.(.D.^.G F P m l k j 7   +               ",
"                  .   6 7 8 9 B L w X+*.(.v.O.Z.(+1+v+Y+G+L+u+6+6+6+6+O+G+|+&+1+C+2+Y.i.M./.^.F w L B 9 8 7 6   .               ",
"                          {   9 l Z+`+ @.@+@@@#@$@%@&@*@=@N+u+6+6+6+6+[+=@-@;@$@#@#@>@,@'@)@!@S m j C   +                       ",
"                      . + u { 8 k w ~@*.(.v.O.P.X.P.a+{@]@<+f+t+I+I+t+^@]@$+2+O.L.P.X.i.M./@^.m B C D { ~ + .                   ",
"                          +   7 j (@_@:@<@[@}@|@|@|@|@1@2@3@4@5@6@6@5@7@8@9@0@a@}@b@b@c@<@d@e@j 7   +                           ",
"                          .   6 7 v r f@g@h@i@j@j@i@j@k@l@m@n@o@p@p@o@q@l@r@s@i@i@j@j@i@g@t@u@C M + >                           ",
"                                                                                                                                ",
"                              . + { { { { { { { { { { { v@v@v@v@v@v@v@v@v@{ { { { { { { { { { + .                               ",
"                                                                                                                                "};
