/* XPM */
static char * fire1_xpm[] = {
"64 64 318 2",
"  	c #489848",
". 	c #479848",
"+ 	c #449848",
"@ 	c #659445",
"# 	c #888D41",
"$ 	c #878E41",
"% 	c #639546",
"& 	c #459848",
"* 	c #898D40",
"= 	c #C87730",
"- 	c #429948",
"; 	c #98893E",
"> 	c #E16723",
", 	c #EA611D",
"' 	c #BB7C34",
") 	c #629546",
"! 	c #E26722",
"~ 	c #F9530B",
"{ 	c #EB601C",
"] 	c #97893E",
"^ 	c #FF4C00",
"/ 	c #FF4B00",
"( 	c #E16823",
"_ 	c #958A3E",
": 	c #3C9949",
"< 	c #FF4D00",
"[ 	c #E16924",
"} 	c #978A3E",
"| 	c #878D41",
"1 	c #E16A24",
"2 	c #FF5102",
"3 	c #EA641F",
"4 	c #BA7E35",
"5 	c #649446",
"6 	c #429848",
"7 	c #978B3E",
"8 	c #E16E26",
"9 	c #FF5809",
"0 	c #FF5606",
"a 	c #F85B12",
"b 	c #EA631E",
"c 	c #888E41",
"d 	c #BB7D35",
"e 	c #EA621D",
"f 	c #958C3F",
"g 	c #E17027",
"h 	c #FF5C0C",
"i 	c #FF5808",
"j 	c #FF5507",
"k 	c #FF5002",
"l 	c #F9550D",
"m 	c #978C3F",
"n 	c #FF5908",
"o 	c #FF5506",
"p 	c #FF4F01",
"q 	c #FF4A00",
"r 	c #E16B25",
"s 	c #FF5406",
"t 	c #FF5304",
"u 	c #649546",
"v 	c #888F41",
"w 	c #BA8236",
"x 	c #EA6C22",
"y 	c #FF5909",
"z 	c #E26E25",
"A 	c #C87C32",
"B 	c #E27026",
"C 	c #F86216",
"D 	c #FF590A",
"E 	c #FF5D0D",
"F 	c #FF5C0B",
"G 	c #FF5A0B",
"H 	c #FF5708",
"I 	c #FF5104",
"J 	c #FF4E01",
"K 	c #FF5B09",
"L 	c #BA8136",
"M 	c #FF5B0C",
"N 	c #FF5505",
"O 	c #FF5607",
"P 	c #E16C25",
"Q 	c #958B3F",
"R 	c #419948",
"S 	c #99893D",
"T 	c #FF5C0D",
"U 	c #FF5A09",
"V 	c #FF5B0B",
"W 	c #E16F26",
"X 	c #FF4E00",
"Y 	c #EA6B21",
"Z 	c #878F41",
"` 	c #5F9646",
" .	c #E26A24",
"..	c #FF5100",
"+.	c #F96215",
"@.	c #BD7C34",
"#.	c #E26C25",
"$.	c #FF5504",
"%.	c #C67730",
"&.	c #C77730",
"*.	c #FF5D0C",
"=.	c #F96114",
"-.	c #978C3E",
";.	c #C77D32",
">.	c #FF5E0D",
",.	c #FF5F0D",
"'.	c #FF630C",
").	c #FF670B",
"!.	c #FF690B",
"~.	c #FF640C",
"{.	c #FF600C",
"].	c #FF6D0A",
"^.	c #FF7808",
"/.	c #FF7B07",
"(.	c #FF700A",
"_.	c #FF660B",
":.	c #FF5F0C",
"<.	c #FF610C",
"[.	c #FF680B",
"}.	c #FF7409",
"|.	c #FF8306",
"1.	c #FF8705",
"2.	c #FF8206",
"3.	c #FF6C0A",
"4.	c #FF7908",
"5.	c #FF8905",
"6.	c #FF8D04",
"7.	c #FF8805",
"8.	c #FF7C07",
"9.	c #FF6B0A",
"0.	c #FF6B0B",
"a.	c #FF7708",
"b.	c #FF8106",
"c.	c #FF9003",
"d.	c #FF8A04",
"e.	c #FF7D07",
"f.	c #FF6A0B",
"g.	c #FF7309",
"h.	c #FF7C08",
"i.	c #FF8606",
"j.	c #FF8B05",
"k.	c #FF9004",
"l.	c #FF8F04",
"m.	c #FF9104",
"n.	c #FF9203",
"o.	c #FF650C",
"p.	c #FF5E0C",
"q.	c #FF7B08",
"r.	c #FF8A05",
"s.	c #FF9103",
"t.	c #FF9303",
"u.	c #FF6C0B",
"v.	c #FF730A",
"w.	c #FF7209",
"x.	c #FF5B0D",
"y.	c #FF7809",
"z.	c #FF8406",
"A.	c #FF7A08",
"B.	c #FF620C",
"C.	c #FF9403",
"D.	c #FF8007",
"E.	c #FF8E04",
"F.	c #FF7F07",
"G.	c #FF7109",
"H.	c #FF8506",
"I.	c #FF6F0A",
"J.	c #FF7509",
"K.	c #FF8B04",
"L.	c #FF7E07",
"M.	c #FF8C04",
"N.	c #FF660C",
"O.	c #FF7609",
"P.	c #FF9503",
"Q.	c #FF9803",
"R.	c #FF9D03",
"S.	c #FF9E03",
"T.	c #FF9C03",
"U.	c #FF9903",
"V.	c #FF9A03",
"W.	c #FFA303",
"X.	c #FFAE02",
"Y.	c #FFB102",
"Z.	c #FFAD02",
"`.	c #FFA502",
" +	c #FF9603",
".+	c #FFC001",
"++	c #FFC601",
"@+	c #FFBF01",
"#+	c #FFB202",
"$+	c #FF9F03",
"%+	c #FFA402",
"&+	c #FFB802",
"*+	c #FFD101",
"=+	c #FFD901",
"-+	c #FFD001",
";+	c #FFBF02",
">+	c #FFA403",
",+	c #FF9B03",
"'+	c #FFA003",
")+	c #FFA802",
"!+	c #FFC501",
"~+	c #FFDB00",
"{+	c #FFE200",
"]+	c #FFC602",
"^+	c #FFA703",
"/+	c #FF8706",
"(+	c #FF9404",
"_+	c #FFA902",
":+	c #FFB702",
"<+	c #FFC701",
"[+	c #FFD201",
"}+	c #FFE000",
"|+	c #FFE300",
"1+	c #FFDA01",
"2+	c #FFC702",
"3+	c #FFB502",
"4+	c #FFC801",
"5+	c #FFD301",
"6+	c #FFD701",
"7+	c #FFDC01",
"8+	c #FFC802",
"9+	c #FFA903",
"0+	c #FF8605",
"a+	c #FFAA02",
"b+	c #FFD501",
"c+	c #FFE100",
"d+	c #FFE500",
"e+	c #FFAB03",
"f+	c #FF9703",
"g+	c #FF720A",
"h+	c #FFA503",
"i+	c #FFAF02",
"j+	c #FFBB02",
"k+	c #FFCB01",
"l+	c #FFDD00",
"m+	c #FFE600",
"n+	c #FFDD01",
"o+	c #FFCF01",
"p+	c #FFB902",
"q+	c #FFC102",
"r+	c #FFD900",
"s+	c #FFE400",
"t+	c #FFC002",
"u+	c #FFB302",
"v+	c #FFBC02",
"w+	c #FFD801",
"x+	c #FFA602",
"y+	c #FF650B",
"z+	c #FF8107",
"A+	c #FFBD02",
"B+	c #FFAB02",
"C+	c #FF7009",
"D+	c #FFB402",
"E+	c #FFD700",
"F+	c #FFE700",
"G+	c #FFCA02",
"H+	c #FFAD03",
"I+	c #FF8207",
"J+	c #FF610B",
"K+	c #FFA103",
"L+	c #FFC201",
"M+	c #FFDF00",
"N+	c #FF9204",
"O+	c #FF6E0A",
"P+	c #FF5E0B",
"Q+	c #FF640A",
"R+	c #FF7207",
"S+	c #FF8005",
"T+	c #FF8D02",
"U+	c #FF9301",
"V+	c #FF9401",
"W+	c #FF9701",
"X+	c #FFA100",
"Y+	c #FFB100",
"Z+	c #FFC600",
"`+	c #FFDC00",
" @	c #FFCB00",
".@	c #FFAD00",
"+@	c #FF9002",
"@@	c #FF8504",
"#@	c #FF600A",
"$@	c #FF5D0B",
"%@	c #FFDA00",
"&@	c #E17526",
"*@	c #E17E26",
"=@	c #E18725",
"-@	c #E19024",
";@	c #E19424",
">@	c #E19924",
",@	c #E1A224",
"'@	c #E1B523",
")@	c #E1CB23",
"!@	c #E1D523",
"~@	c #E1D623",
"{@	c #E1D323",
"]@	c #E1CD23",
"^@	c #E1BF23",
"/@	c #E1A824",
"(@	c #E19724",
"_@	c #E17A26",
":@	c #E17226",
"<@	c #E17026",
"[@	c #978D3E",
"}@	c #978F3E",
"|@	c #97923E",
"1@	c #97953E",
"2@	c #97973E",
"3@	c #97983E",
"4@	c #979C3E",
"5@	c #97A33E",
"6@	c #97AC3E",
"7@	c #97B13E",
"8@	c #97B03E",
"9@	c #97AD3E",
"0@	c #97A73E",
"a@	c #979E3E",
"b@	c #978E3E",
"c@	c #429748",
"                                                                                                                                ",
"                                                                  . + + .                                                       ",
"                                                                                                                                ",
"                                                              .   @ # $ % + &                                                   ",
"                                                              +   * = = *   +                                                   ",
"                                                              -   ; > , ' # )   .                                               ",
"                                                              -   ; ! ~ { = $   +                                               ",
"                                                              -   ] > ^ ^ > ]   -                                               ",
"                                                              -   ] > / / ! ]   -                                               ",
"                                          . + + .             -   ] > ^ ^ ( _ - : + .                                           ",
"                                                              -   ] > ^ < [ }   -                                               ",
"                                      & + % | | % + &         -   } 1 2 2 3 4 ] _ # 5   .                                       ",
"                                      +   * = = *   +         6   7 8 9 0 a b ! ( = #   +                                       ",
"                                  .   ) c d e e d c )   . . + : 6 f g h i j k ^ < > ]   -                                       ",
"                                  +   $ = b l l b = $   +     6   m g h n o p q ^ ! ]   -                                       ",
"                                  -   } r s t t s r } . - u v f 7 w x h y j k ^ < > ]   -                                       ",
"                                  6   7 z y n n y z 7 + 6 v A g B x C h D j k ^ < > ]   -                                       ",
"      . + - - + .             . + : 6 f g E F F E g m 6 6 m g E F E E h G H I < J ( }   -         . + - - + .                   ",
"                                  6   m g E F F E g m 6 6 7 B F K h E E h D s k I 1 }   -                                       ",
"  .   5 # ] ] # 5   .     .   u v f 7 L x E h F E g m 6 6 m g E F E E E E M 9 N O P Q + R     .   @ * S ; # 5   .               ",
"  +   # = ! ! = #   +     +   v A g B x C E E F E g m 6 6 m g E F E E E E T M U V W 7   6     +   # = ! ! = #   +               ",
"  -   } ( X X ( }   -     6   m g E F E E E E F E g m 6 6 m g E F E E E E E E h E Y L Z ` + & +   $ = { ~ ! ;   -               ",
"  -   }  ..... .}   -     6   7 B F K h E E E F E g m 6 6 m g E F E E E E E E E E +.x A Z   + .   % * @.{ ! S   -               ",
"  -   7 #.$.$.#.7   -     R + f g E F E E E E F E g f : : f g E F E E E E E E E E h E Y L v )   . - + | %.&.*   +               ",
"  6   7 W U U W 7   6     6   m g E F E E E E F E g m 6 6 m g E F E E E E E E E E *.h =.Y A Z   + & + % $ # @   .               ",
"  +   v A B B A v   + & + ` Z L Y E h E E E E h E x L f f L x E h E E E E E E E E E E F E g m . 6 u v 7 7 v u   .               ",
"  .   u v -.-.v u   . +   Z A x +.E E E E E E E E C x g g x C E E E E E E E E E E E E F h B 7 + 6 v A B g ;.Z   +               ",
"                  .   ) v L Y E h E E E E E E E E E E E E E E E E E E T E E E E E E E F E g m 6 6 m g F F g m   6               ",
"      . + 6 6 + . +   Z A Y =.h *.E E E E E E E E E h F F h E E E E E E E E E E E E E F E g m 6 6 7 B K K B 7   6               ",
"                  6   m g E F E E E E E E E E E E E E E E E E >.,.'.).!.).~.{.>.E E E F E g m 6 6 m g F F g m   6               ",
"                  6   7 B h F E E E E E E E E E E E E E E E E ,.~.].^./.^.(._.:.E E E F E g m 6 6 m g F F g m   6               ",
"      . + 6 6 + . 6   m g E F E E E E E E E E E E E E E E E E <.[.}.|.1.2.^.!.:.E E E F E g f : : f g F F g f 6 : + .           ",
"                  6   m g E F E E E E E E E E E E E E >.:.:.:.'.3.4.5.6.7.8.9.:.E E E F E g m 6 6 m g F F g m   6               ",
"  .   u v 7 7 v u 6 . m g E F E E E E E E E E E E E E ,.'.).0.(.a.b.6.c.d.e.0.:.E E E h E x L f f L x h h x L 7 f v u   .       ",
"  +   v A B B A v 6 + m g E F E E E E E E E E E E E E <.f.g.h.2.i.j.k.c.d.e.f.>.E E E E E C x g g x C E E C x B g A v   +       ",
"  6   m g F F g f : : f g E F E E E E E >.,.,.,.>.E E '.].4.i.6.l.m.n.c.d.e.f.>.E E E E E E E E E E E E E E E F E g m   6       ",
"  6   7 B K K B 7 6 6 m g E F E E E E >.<.'.o.~.<.p.>.'.].q.r.s.n.t.t.c.d.e.0.:.E E E E E E h F F h E E E E h K F B 7   6       ",
"  6   m g h F x L f f L x E h E E T T ,.o.u.v.w.0.~.,.<.3.q.j.t.t.t.t.c.d.e.0.p.E E E E E E E E E E E E E E E F E g m   6       ",
"  6   m g E F C x g g x C E E E E T x.<.u.y.z.z.A.].B.{.!.4.j.t.t.t.C.s.d.e.f.>.E E E E E E E E E E E E E E E F E g m   6       ",
"  6   m g E F E E E E E E E E >.,.{.{.).g.D.6.E.2.}.).~.3.q.j.t.t.t.C.s.d.F.].B.<.{.>.E E E E E E E E E E E E F E g m   6       ",
"  6   m g E F E h F F h E E E ,.~.[.0.G.A.H.l.l.i.A.I.].J.D.6.t.t.t.t.s.K.2.J.3.f._.{.E E E E E E E E E E E E F E g m   6       ",
"  6   m g E F E E E E E E E E B.f.w.4.F.z.r.k.k.r.|.q.A.D.7.l.t.t.t.t.s.6.7.D.A.a.I.~.E E E E E E E E E E E E F E g m   6       ",
"  6   m g E F E E E E E E E E o.w.L.1.M.E.k.n.n.k.6.5.5.M.l.n.t.t.t.t.n.s.l.6.r.H.q.f.:.E E E E E E E E E E E F E g m   6       ",
"  6   m g E F E E E E E E E E N.O.|.E.t.t.t.t.t.t.n.m.m.n.t.t.C.P.Q.R.S.T.U.P.s.6.|.w._.~.B.,.>.E E E E E E E F E g m   6       ",
"  6   m g E F E E E E E E E E N.O.|.E.t.t.t.t.t.t.t.t.t.t.t.t.P.V.W.X.Y.Z.`.V.t.l.7.q.g.(.0.~.:.E E E E E E E F E g m   6       ",
"  6   7 B F K h E E E E E E E N.O.|.E.t.t.t.n.n.t.t.n.n.t.n.n. +S.Z..+++@+#+$+t.m.M.H.D.e.O.[.:.E E E E E E E F E g m   6       ",
"  6   m g E F E E E E E E E E N.O.|.E.t.t.n.m.m.n.n.m.m.n.t.t.Q.%+&+*+=+-+;+>+C.n.m.E.M.r.D.].:.E E E E E E E F E g m   6       ",
"  +   v A g B x C E E E E E E N.O.|.E.t.t.n.k.k.n.n.k.m. +,+'+)+#+!+~+{+=+]+^+t.n.n.t.n.k./+J.!.).~.{.>.E E E F E g m   6       ",
"  .   u v f 7 L x E h E E E E N.O.|.E.t.t.n.s.s.n.n.k.(+R._+:+.+<+[+}+|+1+2+)+t.k.m.n.n.k.r.D.4.a.(._.:.E E E F E g m   6       ",
"          6   7 B F K h E E E N.O.|.E.t.t.t.s.s.n.n.k. +%+3+4+5+6+7+|+{+1+8+9+t.k.m.n.n.m.E.5.0+|.q.3.<.>.E E F E g m   6       ",
"      . + : 6 f g E F E E E E N.O.|.E.t.t.t.n.t.t.t.t.,+a+;+b+}+c+|+d+{+1+8+e+f+t.t.t.t.n.s.k.E.M.|.g+~.,.E E F E g m   6       ",
"          +   v A g B x C E E ~.(.8.H.j.6.l.n.P.V.$+h+i+j+k+l+m+m+m+m+|+n+o+p+a+h+'+Q.t.t.t.t.n.k.i.}.o.,.E E F E g m   6       ",
"          .   u v f 7 L x E h {._.3.g.4.D.1.l.U.`.#+q+k+*+r+{+m+m+m+m+s+c+1+o+]+t+u+'+C.t.t.t.n.k.i.g.~.,.E E F E g m   6       ",
"                  6   m g E F >.:.<.~.0.a.2.E.,+a+v+o+1+l+c+s+m+m+m+m+d+s+c+n+w+*+q+x+P.t.t.n.s.l.H.G.'.,.E h K F B 7   6       ",
"              . + : 6 f g E F E E E >.y+g.z+6.,+a+A+[+l+}+{+d+m+m+m+m+m+d+d+s+c+=+2+B+f+C.n.m.l.M.2.C+'.,.E E F E g m   6       ",
"                  6   m g E F E E T x.'.w.D.6.U.`.D+++*+E+l+|+m+m+m+m+m+m+F+F+s+7+G+H+Q.t.l.r.H.I+4.9.J+>.C x B g A v   +       ",
"                  6   m g E F E E T T ~.w.D.6.P.V.K+a+3+L+-+M+m+m+m+m+m+m+m+F+s+7+G+H+Q.N+r.h.w.O+!.'.P+E x L 7 f v u   .       ",
"                  6   7 B F K F F F F Q+R+S+T+U+V+V+W+X+Y+Z+`+F+F+F+F+F+F+F+F+s+`+ @.@W++@@@R+Q+#@P+$@K F B 7   6               ",
"                  6   m g E F E E E E o.g.D.6.t.t.t.C.,+_+.+%@m+m+m+m+m+m+m+m+|+7+G+H+ +E.I+O+<.>.E E F E g f 6 : + .           ",
"                  +   v A g B g g g g &@*@=@-@;@;@;@;@>@,@'@)@!@~@!@!@!@!@!@!@{@]@^@/@(@-@=@_@:@<@g g B g A v   +               ",
"                  .   u v m 7 m m m m [@}@|@1@2@2@2@2@3@4@5@6@7@7@7@7@7@7@7@7@8@9@0@a@2@1@|@b@-.m m m 7 m v u   .               ",
"                                                                                                                                ",
"                      . + 6 6 6 6 6 6 6 6 6 6 6 6 6 6 6 6 6 c@c@c@c@c@c@c@c@c@c@c@c@6 6 6 6 6 6 6 6 6 6 6 + .                   ",
"                                                                                                                                "};
