/* XPM */
static char * fire3_xpm[] = {
"64 64 428 2",
"  	c #489848",
". 	c #479848",
"+ 	c #449848",
"@ 	c #459848",
"# 	c #639546",
"$ 	c #878E41",
"% 	c #888D41",
"& 	c #659445",
"* 	c #898D40",
"= 	c #C87730",
"- 	c #429848",
"; 	c #629546",
"> 	c #BB7C34",
", 	c #EA611D",
"' 	c #E16823",
") 	c #97893E",
"! 	c #429948",
"~ 	c #3C9949",
"{ 	c #EB601C",
"] 	c #F9530B",
"^ 	c #E26722",
"/ 	c #98893E",
"( 	c #649546",
"_ 	c #888F41",
": 	c #978B3E",
"< 	c #E16723",
"[ 	c #FF4C00",
"} 	c #BA7D35",
"| 	c #958A3E",
"1 	c #649446",
"2 	c #C87C32",
"3 	c #E27026",
"4 	c #FF4B00",
"5 	c #F8550E",
"6 	c #958C3F",
"7 	c #E17027",
"8 	c #FF5C0B",
"9 	c #978C3F",
"0 	c #FF4E01",
"a 	c #FF4D00",
"b 	c #FF5B09",
"c 	c #978A3E",
"d 	c #E16924",
"e 	c #FF4F02",
"f 	c #FF4E00",
"g 	c #FF4A00",
"h 	c #BA8136",
"i 	c #EA6C22",
"j 	c #FF5C0C",
"k 	c #E16B24",
"l 	c #FF5305",
"m 	c #FF5103",
"n 	c #FF5104",
"o 	c #F86216",
"p 	c #FF5D0D",
"q 	c #E16E25",
"r 	c #FF5809",
"s 	c #FF5606",
"t 	c #FF5507",
"u 	c #E17026",
"v 	c #FF5B0B",
"w 	c #FF5A09",
"x 	c #FF5406",
"y 	c #FF4F01",
"z 	c #978C3E",
"A 	c #FF5B0A",
"B 	c #FF5A0B",
"C 	c #FF5607",
"D 	c #FF5102",
"E 	c #FF5003",
"F 	c #FF5909",
"G 	c #FF5506",
"H 	c #EA661F",
"I 	c #BA8036",
"J 	c #F86015",
"K 	c #EA6B21",
"L 	c #FF5E0D",
"M 	c #FF600C",
"N 	c #FF610C",
"O 	c #FF670B",
"P 	c #FF6A0B",
"Q 	c #FF600B",
"R 	c #FF5E0B",
"S 	c #FF660C",
"T 	c #FF710A",
"U 	c #FF7708",
"V 	c #FF720A",
"W 	c #FF5F0D",
"X 	c #419948",
"Y 	c #FF6D0B",
"Z 	c #FF7E07",
"` 	c #FF8605",
" .	c #FF6E0A",
"..	c #FF620C",
"+.	c #FF610A",
"@.	c #FF8406",
"#.	c #FF8D04",
"$.	c #FF7109",
"%.	c #FF630C",
"&.	c #878F41",
"*.	c #5F9646",
"=.	c #FF8E04",
"-.	c #F96115",
";.	c #EA6A21",
">.	c #C87B31",
",.	c #FF590A",
"'.	c #EA6720",
").	c #BA7E35",
"!.	c #878D41",
"~.	c #FF5707",
"{.	c #F95A11",
"].	c #EA631E",
"^.	c #FF610B",
"/.	c #FF5D0B",
"(.	c #FF5C08",
"_.	c #FF5C05",
":.	c #FF5B02",
"<.	c #FF5901",
"[.	c #FF5601",
"}.	c #FF5401",
"|.	c #FF4F00",
"1.	c #EA621E",
"2.	c #5F9546",
"3.	c #F9540D",
"4.	c #E16824",
"5.	c #EA6620",
"6.	c #FF670C",
"7.	c #FF6508",
"8.	c #FF6A05",
"9.	c #FF6E01",
"0.	c #FF6C00",
"a.	c #FF6501",
"b.	c #FF5E02",
"c.	c #FF5703",
"d.	c #FF5303",
"e.	c #FF5203",
"f.	c #F9570E",
"g.	c #FF5C0D",
"h.	c #FF6C09",
"i.	c #FF7506",
"j.	c #FF7D03",
"k.	c #FF7305",
"l.	c #FF6807",
"m.	c #FF5E08",
"n.	c #FF5304",
"o.	c #FF5A0A",
"p.	c #FF640C",
"q.	c #FF7009",
"r.	c #FF7D06",
"s.	c #FF8804",
"t.	c #FF7C06",
"u.	c #FF6F09",
"v.	c #FF620B",
"w.	c #FF5404",
"x.	c #FF5002",
"y.	c #FF5204",
"z.	c #FF680B",
"A.	c #FF7A08",
"B.	c #FF8506",
"C.	c #FF7908",
"D.	c #FF6D0A",
"E.	c #FF5608",
"F.	c #FF5708",
"G.	c #FF580A",
"H.	c #FF5B0C",
"I.	c #FF7608",
"J.	c #FF7B07",
"K.	c #FF7808",
"L.	c #FF6F0A",
"M.	c #FF600D",
"N.	c #FF7409",
"O.	c #FF7309",
"P.	c #FF6C0B",
"Q.	c #FF650C",
"R.	c #FF660B",
"S.	c #FF8106",
"T.	c #FF8705",
"U.	c #FF7609",
"V.	c #FF650B",
"W.	c #FF8805",
"X.	c #FF8A05",
"Y.	c #FF5F0C",
"Z.	c #FF610D",
"`.	c #FF680C",
" +	c #FF6B0B",
".+	c #FF690B",
"++	c #FF7C07",
"@+	c #FF9104",
"#+	c #FF8C05",
"$+	c #E16A24",
"%+	c #FF5405",
"&+	c #FF7709",
"*+	c #FF7F07",
"=+	c #FF8107",
"-+	c #FF7B08",
";+	c #FF6C0A",
">+	c #FF8905",
",+	c #FF9004",
"'+	c #FF8B05",
")+	c #FF5807",
"!+	c #FF5709",
"~+	c #E16D25",
"{+	c #FF8B04",
"]+	c #FF7C08",
"^+	c #FF8F04",
"/+	c #E16F26",
"(+	c #E26823",
"_+	c #FF8206",
":+	c #FF8C04",
"<+	c #E16B25",
"[+	c #FF5306",
"}+	c #FF7508",
"|+	c #FF7D07",
"1+	c #FF9203",
"2+	c #FF8505",
"3+	c #FF9103",
"4+	c #E16E26",
"5+	c #FF590B",
"6+	c #FF5808",
"7+	c #FF8405",
"8+	c #FF8904",
"9+	c #FF9303",
"0+	c #FF9003",
"a+	c #978B3F",
"b+	c #E16F27",
"c+	c #FF700A",
"d+	c #FF8E03",
"e+	c #FF8F03",
"f+	c #FF7509",
"g+	c #F96114",
"h+	c #FF5D0C",
"i+	c #FF9603",
"j+	c #FF9A03",
"k+	c #FF9D03",
"l+	c #FF9E03",
"m+	c #FF9C03",
"n+	c #FF9803",
"o+	c #FF9503",
"p+	c #FF9403",
"q+	c #FF7209",
"r+	c #FF8007",
"s+	c #FFA802",
"t+	c #FFAF02",
"u+	c #FFB202",
"v+	c #FFAD02",
"w+	c #FFA203",
"x+	c #FF9903",
"y+	c #F96215",
"z+	c #FFA303",
"A+	c #FFB702",
"B+	c #FFC301",
"C+	c #FFC701",
"D+	c #FFC801",
"E+	c #FFC901",
"F+	c #FFBF02",
"G+	c #FFAC02",
"H+	c #FF8606",
"I+	c #FF6A0A",
"J+	c #FF8A04",
"K+	c #FF9703",
"L+	c #FFAA02",
"M+	c #FFC601",
"N+	c #FFD501",
"O+	c #FFDB01",
"P+	c #FFDD01",
"Q+	c #FFDE01",
"R+	c #FFD101",
"S+	c #FFA202",
"T+	c #FFAE02",
"U+	c #FFCD01",
"V+	c #FFDE00",
"W+	c #FFE400",
"X+	c #FFE700",
"Y+	c #FFE600",
"Z+	c #FFDB00",
"`+	c #FFB002",
" @	c #FFA702",
".@	c #FFA003",
"+@	c #FF9B03",
"@@	c #958B3E",
"#@	c #FFDF00",
"$@	c #FFE500",
"%@	c #FFE000",
"&@	c #FFC501",
"*@	c #FFBF01",
"=@	c #FFB602",
"-@	c #FFA902",
";@	c #FF9D02",
">@	c #FF5202",
",@	c #FFCC01",
"'@	c #FFE300",
")@	c #FFD601",
"!@	c #FFD301",
"~@	c #FFB402",
"{@	c #FFA302",
"]@	c #FFE200",
"^@	c #FFE100",
"/@	c #FFBC02",
"(@	c #EA651F",
"_@	c #F85D14",
":@	c #FF5C0A",
"<@	c #FF6209",
"[@	c #FF6E07",
"}@	c #FF7C04",
"|@	c #FF8302",
"1@	c #FF8502",
"2@	c #FF8903",
"3@	c #FFA703",
"4@	c #FFBA02",
"5@	c #FFE800",
"6@	c #FFC001",
"7@	c #FF7A06",
"8@	c #FF6A08",
"9@	c #FF5E09",
"0@	c #FF5908",
"a@	c #FF5905",
"b@	c #FF6006",
"c@	c #FF6703",
"d@	c #FF6C02",
"e@	c #FF7001",
"f@	c #FF7A02",
"g@	c #FFA403",
"h@	c #FFB802",
"i@	c #FFC202",
"j@	c #FFC602",
"k@	c #FFCF01",
"l@	c #FFDD00",
"m@	c #FF8A03",
"n@	c #FF7803",
"o@	c #FF6603",
"p@	c #FF5803",
"q@	c #FF5205",
"r@	c #FF5403",
"s@	c #FF5602",
"t@	c #FF6001",
"u@	c #FFC402",
"v@	c #FFD201",
"w@	c #FFDC01",
"x@	c #FFD801",
"y@	c #FF7702",
"z@	c #FF6401",
"A@	c #FF5500",
"B@	c #FF4E02",
"C@	c #FF5001",
"D@	c #FF5300",
"E@	c #FF5A01",
"F@	c #FFAB02",
"G@	c #FFDA00",
"H@	c #FFBB01",
"I@	c #FF8A02",
"J@	c #FF7701",
"K@	c #EA641E",
"L@	c #FF5A04",
"M@	c #FF6D03",
"N@	c #FF8403",
"O@	c #FFA603",
"P@	c #FFD600",
"Q@	c #FFD800",
"R@	c #FFCE01",
"S@	c #FFC401",
"T@	c #FFB102",
"U@	c #F85E14",
"V@	c #FF6009",
"W@	c #FF7007",
"X@	c #FF8504",
"Y@	c #FFD400",
"Z@	c #FF630A",
"`@	c #FF7207",
" #	c #FF8503",
".#	c #FF8F01",
"+#	c #FF9001",
"@#	c #FF9301",
"##	c #FF9601",
"$#	c #FF9901",
"%#	c #FF9E00",
"&#	c #FFB200",
"*#	c #FFCE00",
"=#	c #FFBD00",
"-#	c #FFA600",
";#	c #FF9C01",
">#	c #FF9501",
",#	c #FF9401",
"'#	c #FF8A00",
")#	c #FF7700",
"!#	c #FF6300",
"~#	c #FF5400",
"{#	c #FFBB02",
"]#	c #E17126",
"^#	c #E17426",
"/#	c #E17D25",
"(#	c #E18A24",
"_#	c #E19124",
":#	c #E19324",
"<#	c #E19424",
"[#	c #E19824",
"}#	c #E1A924",
"|#	c #E1C123",
"1#	c #E1CF23",
"2#	c #E1D423",
"3#	c #E1D623",
"4#	c #E1CB23",
"5#	c #E1B323",
"6#	c #E1A024",
"7#	c #E19624",
"8#	c #E19224",
"9#	c #E19524",
"0#	c #E18E24",
"a#	c #E18123",
"b#	c #E27423",
"c#	c #E16C23",
"d#	c #C87630",
"e#	c #978D3E",
"f#	c #978F3E",
"g#	c #97933E",
"h#	c #97963E",
"i#	c #97983E",
"j#	c #979E3E",
"k#	c #97A83E",
"l#	c #97AE3E",
"m#	c #97B03E",
"n#	c #97B13E",
"o#	c #97AC3E",
"p#	c #97A23E",
"q#	c #979B3E",
"r#	c #97973E",
"s#	c #97953E",
"t#	c #97903E",
"u#	c #429748",
"                                                                                                                                ",
"                                                                      . + + .                                                   ",
"                                                                                                                                ",
"                                                                  @ + # $ % &   .                                               ",
"                                                                  +   * = = *   +                                               ",
"                                                  . + - - + . .   ; % > , ' ) ! ~ + .                                           ",
"                                                              +   $ = { ] ^ /   !                                               ",
"                                              .   ( _ : : _ ( ! . ) < [ [ , } ) | % 1   .                                       ",
"                                              +   _ 2 3 3 2 _ ! + ) ^ [ 4 5 , ^ ' = %   +                                       ",
"                          . + ! ! + .     . + ~ - 6 7 8 8 7 9 ! - ) ' 0 [ 0 a [ a < )   !             . + ! ! + .               ",
"                                              -   : 3 b b 3 : ! - c d e f 0 a g [ ^ )   !                                       ",
"                      .   1 % ) ) % 1 . . ( _ 6 : h i 8 j 7 9 ! - c k l m n e [ a < )   !         .   1 % ) ) % 1   .           ",
"                      +   % = ^ ^ = % + + _ 2 7 3 i o 8 p 7 9 - - : q r s t n a 0 < )   !         +   % = ^ ^ = %   +           ",
"                      !   ) ^ g g ^ ) - ! 9 7 p 8 p p 8 p 7 6 ~ ~ 6 u v w r x y 0 ' | - ~ + .     !   ) < [ [ < )   !           ",
"                      !   ) ^ g g ^ ) - ! : 3 8 b j p 8 p 7 9 - - z u p A B C D E d c   !         !   ) ^ g g ^ )   !           ",
"                      +   % = ^ ^ = % - + 9 7 p 8 p p j p i h 6 6 h i p j j F G x H I : 6 _ (   . !   ) < 4 4 ^ )   !           ",
"                      .   1 % ) ) % 1 - . 9 7 p 8 p p p p o i 7 7 i o p p p j B B J K 3 7 2 _   + !   ) < [ [ < )   !           ",
"                                      -   9 7 p 8 L M N N M L p p p p p p p p p p p p 8 p 7 9   - !   / ^ ] { = $   +           ",
"                          . + ! ! + . -   9 7 p 8 N O P P O Q 8 8 j p p p p p p p p j b 8 3 :   - !   / < , > % ;   .           ",
"                                      -   9 7 p R S T U U V S W p p p p p p p p p p p 8 p 7 6 + X +   * = = *   +               ",
"                                      -   9 7 L Q Y Z ` ` Z  ...L p p p p p p p p p p 8 p 7 9   - .   & % $ # + @               ",
"                  . + ! ! + .         -   9 7 L +.T @.#.#.@.$.%.W p p p p p p p p p p j p K h &.*.! X ! ! ! ! + .               ",
"                                      -   9 7 L +.T @.=.=.@.T %.L p p p p p p p p p p p p -.;.>.&.  + . + + .                   ",
"              .   1 % ) ) $ ; ! X ! ! ~ ! 6 7 L +.T @.=.=.@.T %.L p p p p p p p p p p p p v ,.'.).) | ) ) ) ) !.; + @           ",
"              +   % = ^ ^ = %   +     -   9 7 L +.T @.#.#.@.$.%.W p p p p p p p p p p p p v ~.{.].< ' < < ^ < = %   +           ",
"              !   ) < [ [ , } ) | ) ) | c I K L ^.Y Z ` ` Z  ...L p p p p p p p p p p p p /.(._.:.<.[.}.D |.e 1.} $ 2.+ @       ",
"              !   ) ^ 4 g 3., < ' < < 4.d 5.J L M 6.V U U V S W p p p p p p p p p p p p p M 7.8.9.0.a.b.c.d.e.f.1.= !.  +       ",
"              !   ) < a [ a a a a a a 0 E x B p W ..O P P O N p p p p p p p p p g.p p p p ..h.i.j.j.k.l.m.r C d.e , } % ;   .   ",
"              !   ) < a [ a [ [ [ [ [ [ f n.o.p L W M N N M L p p p p p p p p p p p p p p p.q.r.s.s.t.u.v.B r w.|.] , = $   +   ",
"              !   ) < a [ a a a 0 0 x.m y.t B p p p p p p p p p p p p p p W %.O z.z.p.M L %. .A.B.B.C.D.%.j r G x.[ a < )   !   ",
"              !   ) < a [ a a 0 e n x E.F.G.H.p p p p p p p p p p p p p p %. .I.J.K.L.O M M.6. .N.O.P.Q.M.j F G x.4 [ ^ )   !   ",
"          . + ~ ! | ' a [ a a 0 e l r B B v j p p p p p p p p p L L p p p R.I.S.T.@.U.P N L N p.R.V.N W p j F x x.[ a ' )   !   ",
"              !   ) < a [ a a 0 E x ,.j j j p p p p p p p L W M.N M L g.p z.J.W.=.X.C.P N p L W Y.W L p p j F G x.[ e d c   !   ",
"      .   1 % | ) } , f f e x.n l F.v p p p p p p p p p p Z.`.P. . +p.L p .+++X.@+#+A.P N p p p g.g.p p p j o.F.l D y.$+c   !   ",
"      +   % = ' ^ , 5 y m %+t F.,.v g.p p p p p p p p p W `.&+*+=+-+;+..L .+-+>+,+'+C.P N p p p g.g.p p p p j v o.)+!+~+:   !   ",
"      !   ) ' 0 [ 0 0 x.l C ,.v j p p p p p p p p L M N %. .*+>+{+@.N.R... +]+W.^+'+C.P N p p p p p p p p p p p p v v /+:   -   ",
"      !   ) (+f a 0 e n %+F.B g.p p p p p p p p p M V.z.P O._+:+^+>+C.D..+q.Z >+,+'+C.P N p p p p p p p p p p p p 8 g.u :   -   ",
"      !   c <+[+y.x x t C F j p p p p p p p p p p p.L.}+U |+T.=.1+#.S.C.I.J.2+:+3+'+C.P N p p p p p p p p p p p p 8 p 7 9   -   ",
"      -   : 4+5+6+B B B v j p p p p p p p p p p W P -+7+` 8+=.3+9+0+{+T.` 8+#.3+1+'+C.P N p p p p p p p p p p p p 8 p 7 9   -   ",
"      -   a+b+g.8 p p p p p p p p p p p L W M ..p.c+_+:+d+0+1+9+9+1+0+e+e+0+1+9+1+X.A.D.Q.N W L p p p p p p p p p 8 p 7 9   -   ",
"      -   9 7 p 8 p p p p p p p p p p p W ..O  +D.U B.=.3+1+9+9+9+9+1+1+1+1+9+1+0+8+|+O.D.z.p.N L p p p p p p p p 8 p 7 9   -   ",
"      -   : 3 j 8 p p p p p p p p p p L M.6.V K.-+S.X.,+1+9+9+9+9+1+1+1+1+9+9+1+0+:+@.Z -+f+P.Q.W g.p p p p p p p 8 p 7 9   -   ",
"      -   9 7 p 8 p p p p p p p p p p W %. .Z T.X.#.,+1+9+9+9+9+9+1+0+0+1+9+9+9+1+0+=.:+'+@.U P N g.g.p p p p p p 8 p 7 9   -   ",
"      +   &.2 K g+j h+p p p p p L M.%.R. +U T.,+1+9+1+1+9+i+j+k+l+k+m+m+k+m+n+o+p+9+9+9+9+:+*+q+z.%.N M L p p p p 8 p 7 9   -   ",
"      .   ; _ h K p j p p p p L N S D.O.U r+:+1+9+1+0+0+9+m+s+t+u+u+u+u+u+v+w+x+o+9+9+9+9+=.B.++f+L.P V.M p p p p 8 p 7 9   -   ",
"          +   &.2 i y+p p p p W p.D.K.*+_+W.^+9+9+1+0+3+o+z+A+B+C+D+D+E+D+F+G+k+i+1+9+9+1+^+X.H+_+++N.I+..p p p j b 8 3 :   -   ",
"          @ + *.&.h K p j p p M R.q+_+J+#.^+1+9+9+9+1+9+K+L+M+N+O+P+P+Q+P+R+A+S+n+9+9+1+0+e+^+^+#.T.++L.p.p p p p 8 p 7 9   -   ",
"              -   : /+B o.j p M z.I.T.0+1+9+1+1+9+9+9+p+n+T+U+V+W+X+Y+X+X+Z+B+`+ @.@+@i+3+e+=.#.#+B.A. .%.p p o i 3 7 2 _   +   ",
"              X + @@<+t s o.j M z.U >+1+9+1+0+0+1+9+9+p+n+T+U+#@$@X+$@Y+X+%@R+&@*@=@-@;@o+#.T._+]+U.L.z.N j p i h : 6 _ (   .   ",
"              !   c (+x.>@C v M z.U >+1+1+3+0+0+1+9+9+p+n+v+,@V+W+Y+$@$@Y+'@O+)@!@D+~@{@K+:+S.U  .z.Q...W 8 p 7 9   -           ",
"              !   ) ' e x.t 5+Y.O I.T.e+0+0+3+1+9+9+p+o+x+T+U+V+W+X+Y+Y+X+Y+'@]@^@N+/@ @n+{+|+c+V.M Y.W L 8 p 7 6 - ~ + .       ",
"              +   % = 4.(+(@_@:@<@[@}@|@1@2@e+1+p+j+w+3@L+4@!@^@$@X+X+X+X+X+X+5@X+O+6@-@x+J+7@8@9@G.,.B B 0@B 4+:   -           ",
"              .   1 % | c ).(@G a@b@c@d@e@f@2@3+i+g@h@i@j@k@l@$@Y+X+X+X+X+X+X+5@X+O+6@-@j+m@n@o@p@n q@x x n.x <+c   !           ",
"                  . + ~ ! | d E D r@s@<.t@e@1@3+K+L+u@v@)@w@'@X+Y+Y+X+X+X+X+Y+$@$@x@*@-@j+m@y@z@A@0 B@e 0 a f (+)   !           ",
"                  . + ~ ! | ' 0 a y C@D@E@d@|@0+K+F@j@N+G@#@W+Y+$@$@Y+X+X+$@]@%@#@!@H@ @j+I@J@z@A@a a 0 0 [ 0 ' )   !           ",
"              .   1 % | c ).K@e.D m m w.L@M@N@0+i+O@/@E+k@P@#@W+W+$@Y+X+Y+^@Q@R+R@S@T@S+n+m@y@z@A@[ [ 3., ^ ' = %   +           ",
"              +   % = 4.(+H U@,.F ,.G.o.V@W@X@e+1+j+O@v+u+6@Y@%@W+Y+X+X+$@G@M+h@T@-@.@j+o+m@y@z@A@[ a , } ) | % 1   .           ",
"              !   ) ^ a f n.F 8 8 8 v /.Z@`@ #.#+#@###$#%#&#*##@$@5@5@X+$@Q@=#-#;###>#,#@#'#)#!#~#] , = $   +                   ",
"              !   ) ^ a f %+o.p p p p W p.q+2+e+0+3+1+p+x+t+U+V+W+X+X+X+Y+x@{#{@i+3+1+p+9+m@y@!#A@, } $ 2.! X + .               ",
"              +   % = ' (+<+/+7 7 7 7 ]#^#/#(#_#:#:#:#<#[#}#|#1#2#3#3#3#3#4#5#6#7#8#:#9#<#0#a#b#c#d#%   +                       ",
"              .   1 % ) c c : 9 9 9 9 z e#f#g#h#h#h#h#h#i#j#k#l#m#n#n#n#n#o#p#q#r#h#h#r#r#s#t#e#c !.; + @                       ",
"                                                                                                                                ",
"                  . + ! ! ! - - - - - - - - - - - - - - - - u#u#u#u#u#u#u#u#- - - - - - - - - - ! + .                           ",
"                                                                                                                                "};
